<svg width="28" height="32" viewBox="0 0 28 32" fill="none" xmlns="http://www.w3.org/2000/svg">
<g clip-path="url(#clip0_55_250)">
<path d="M10 5C10 2.79375 11.7937 1 14 1C16.2062 1 18 2.79375 18 5V8H10V5ZM7 8H3C1.34375 8 0 9.34375 0 11V24C0 27.3125 2.6875 30 6 30H22C25.3125 30 28 27.3125 28 24V11C28 9.34375 26.6562 8 25 8H21V5C21 1.13125 17.8687 -2 14 -2C10.1313 -2 7 1.13125 7 5V8ZM8.5 11C8.69698 11 8.89204 11.0388 9.07403 11.1142C9.25601 11.1896 9.42137 11.3001 9.56066 11.4393C9.69995 11.5786 9.81044 11.744 9.88582 11.926C9.9612 12.108 10 12.303 10 12.5C10 12.697 9.9612 12.892 9.88582 13.074C9.81044 13.256 9.69995 13.4214 9.56066 13.5607C9.42137 13.6999 9.25601 13.8104 9.07403 13.8858C8.89204 13.9612 8.69698 14 8.5 14C8.30302 14 8.10796 13.9612 7.92597 13.8858C7.74399 13.8104 7.57863 13.6999 7.43934 13.5607C7.30005 13.4214 7.18956 13.256 7.11418 13.074C7.0388 12.892 7 12.697 7 12.5C7 12.303 7.0388 12.108 7.11418 11.926C7.18956 11.744 7.30005 11.5786 7.43934 11.4393C7.57863 11.3001 7.74399 11.1896 7.92597 11.1142C8.10796 11.0388 8.30302 11 8.5 11ZM18 12.5C18 12.1022 18.158 11.7206 18.4393 11.4393C18.7206 11.158 19.1022 11 19.5 11C19.8978 11 20.2794 11.158 20.5607 11.4393C20.842 11.7206 21 12.1022 21 12.5C21 12.8978 20.842 13.2794 20.5607 13.5607C20.2794 13.842 19.8978 14 19.5 14C19.1022 14 18.7206 13.842 18.4393 13.5607C18.158 13.2794 18 12.8978 18 12.5Z" fill="black"/>
</g>
<defs>
<clipPath id="clip0_55_250">
<rect width="28" height="32" fill="white"/>
</clipPath>
</defs>
</svg>