<svg width="26" height="23" viewBox="0 0 26 23" fill="none" xmlns="http://www.w3.org/2000/svg">
<path d="M12.75 0C13.0594 0 13.3547 0.126562 13.5656 0.351562L20.3156 7.47656L20.3391 7.5H24C24.8297 7.5 25.5 8.17031 25.5 9C25.5 9.67969 25.05 10.2516 24.4313 10.4391L22.2703 20.1516C21.9656 21.525 20.7469 22.5 19.3406 22.5H6.15469C4.74844 22.5 3.52969 21.525 3.225 20.1516L1.06875 10.4391C0.45 10.2562 0 9.67969 0 9C0 8.17031 0.670312 7.5 1.5 7.5H5.16094L5.18437 7.47656L11.9344 0.351562C12.1453 0.126562 12.4406 0 12.75 0ZM12.75 2.76094L8.25937 7.5H17.2406L12.75 2.76094ZM9 12.375C9 11.7516 8.49844 11.25 7.875 11.25C7.25156 11.25 6.75 11.7516 6.75 12.375V17.625C6.75 18.2484 7.25156 18.75 7.875 18.75C8.49844 18.75 9 18.2484 9 17.625V12.375ZM12.75 11.25C12.1266 11.25 11.625 11.7516 11.625 12.375V17.625C11.625 18.2484 12.1266 18.75 12.75 18.75C13.3734 18.75 13.875 18.2484 13.875 17.625V12.375C13.875 11.7516 13.3734 11.25 12.75 11.25ZM18.75 12.375C18.75 11.7516 18.2484 11.25 17.625 11.25C17.0016 11.25 16.5 11.7516 16.5 12.375V17.625C16.5 18.2484 17.0016 18.75 17.625 18.75C18.2484 18.75 18.75 18.2484 18.75 17.625V12.375Z" fill="black"/>
</svg>
