<svg width="42" height="48" viewBox="0 0 42 48" fill="none" xmlns="http://www.w3.org/2000/svg">
<g clip-path="url(#clip0_55_241)">
<path d="M12.8156 0.553125L12 3H3C1.34062 3 0 4.34062 0 6C0 7.65938 1.34062 9 3 9H39C40.6594 9 42 7.65938 42 6C42 4.34062 40.6594 3 39 3H30L29.1844 0.553125C28.7719 -0.675 27.6281 -1.5 26.3344 -1.5H15.6656C14.3719 -1.5 13.2281 -0.675 12.8156 0.553125ZM39 13.5H3L4.97812 43.7906C5.12812 46.1625 7.09688 48 9.46875 48H32.5312C34.9031 48 36.8719 46.1625 37.0219 43.7906L39 13.5Z" fill="#131313"/>
</g>
<defs>
<clipPath id="clip0_55_241">
<rect width="42" height="48" fill="white"/>
</clipPath>
</defs>
</svg>