<svg width="51" height="49" viewBox="0 0 51 49" fill="none" xmlns="http://www.w3.org/2000/svg">
<rect x="8" y="8" width="36" height="33" rx="16.5" fill="#CEFF3D"/>
<path d="M43 22H49C50.1046 22 51 22.8954 51 24C51 25.1046 50.1046 26 49 26H43V22Z" fill="#131313"/>
<path d="M0 24C0 22.8954 0.895431 22 2 22H8V26H2C0.895431 26 0 25.1046 0 24Z" fill="#131313"/>
<path d="M37 10.6569L41.2426 6.41422C42.0237 5.63317 43.29 5.63317 44.0711 6.41422C44.8521 7.19527 44.8521 8.4616 44.0711 9.24265L39.8284 13.4853L37 10.6569Z" fill="#131313"/>
<path d="M8.41421 43.0711C7.63316 42.29 7.63316 41.0237 8.41421 40.2426L12.6569 36L15.4853 38.8284L11.2426 43.0711C10.4616 43.8521 9.19526 43.8521 8.41421 43.0711Z" fill="#131313"/>
<path d="M39.8284 35L44.071 39.2426C44.8521 40.0237 44.8521 41.29 44.071 42.0711C43.29 42.8521 42.0236 42.8521 41.2426 42.0711L36.9999 37.8284L39.8284 35Z" fill="#131313"/>
<path d="M8.41416 6.41421C9.1952 5.63316 10.4615 5.63316 11.2426 6.41421L15.4852 10.6569L12.6568 13.4853L8.41416 9.24264C7.63311 8.46159 7.63311 7.19526 8.41416 6.41421Z" fill="#131313"/>
<path d="M24 8V2C24 0.895431 24.8954 0 26 0C27.1046 0 28 0.895431 28 2V8H24Z" fill="#131313"/>
<path d="M26 49C24.8954 49 24 48.1046 24 47V41H28V47C28 48.1046 27.1046 49 26 49Z" fill="#131313"/>
</svg>